<?xml version="1.0" standalone="no"?><!DOCTYPE svg PUBLIC "-//W3C//DTD SVG 1.1//EN" "http://www.w3.org/Graphics/SVG/1.1/DTD/svg11.dtd"><svg t="1634540725189" class="icon" viewBox="0 0 1024 1024" version="1.1" xmlns="http://www.w3.org/2000/svg" p-id="15286" xmlns:xlink="http://www.w3.org/1999/xlink" width="200" height="200"><defs><style type="text/css"></style></defs><path d="M511.99699 856.089526A428.044763 428.044763 0 1 1 940.041753 428.044763 428.501954 428.501954 0 0 1 511.99699 856.089526z m0-810.370459A382.325696 382.325696 0 1 0 894.322686 428.044763 382.782887 382.782887 0 0 0 511.99699 45.719067z" fill="#3A77D9" p-id="15287"></path><path d="M511.99699 713.217442A193.734546 193.734546 0 1 1 705.731536 519.482897 194.306034 194.306034 0 0 1 511.99699 713.217442z m0-341.750024A148.015479 148.015479 0 1 0 660.012469 519.482897 148.586967 148.586967 0 0 0 511.99699 371.467418z" fill="#3A77D9" p-id="15288"></path><path d="M511.99699 195.334713m-74.293484 0a74.293484 74.293484 0 1 0 148.586968 0 74.293484 74.293484 0 1 0-148.586968 0Z" fill="#3A77D9" p-id="15289"></path><path d="M806.656376 1023.992799H217.337604a22.859533 22.859533 0 1 1 0-45.719067h589.318772a22.859533 22.859533 0 0 1 0 45.719067z" fill="#3A77D9" p-id="15290"></path><path d="M288.545051 1023.992799a22.859533 22.859533 0 0 1-21.716557-31.546156l80.008367-194.306034a22.859533 22.859533 0 1 1 42.290137 17.373246l-80.008367 194.306034a22.859533 22.859533 0 0 1-20.57358 14.17291zM734.305952 1023.992799a22.859533 22.859533 0 0 1-21.716556-14.17291l-80.008367-194.306034a22.859533 22.859533 0 1 1 42.290137-17.373246l80.008366 194.306034a22.859533 22.859533 0 0 1-21.145068 31.546156z" fill="#3A77D9" p-id="15291"></path></svg>