<?xml version="1.0" standalone="no"?><!DOCTYPE svg PUBLIC "-//W3C//DTD SVG 1.1//EN" "http://www.w3.org/Graphics/SVG/1.1/DTD/svg11.dtd"><svg t="1634540802949" class="icon" viewBox="0 0 1024 1024" version="1.1" xmlns="http://www.w3.org/2000/svg" p-id="19314" xmlns:xlink="http://www.w3.org/1999/xlink" width="200" height="200"><defs><style type="text/css"></style></defs><path d="M513.4848 499.3024m-166.7584 0a166.7584 166.7584 0 1 0 333.5168 0 166.7584 166.7584 0 1 0-333.5168 0Z" fill="#DCEDFF" p-id="19315"></path><path d="M513.4848 691.6608c-106.0352 0-192.3584-86.272-192.3584-192.3584 0-106.0352 86.272-192.3584 192.3584-192.3584s192.3584 86.272 192.3584 192.3584c0 106.0352-86.272 192.3584-192.3584 192.3584z m0-333.5168c-77.824 0-141.1584 63.3344-141.1584 141.1584 0 77.824 63.3344 141.1584 141.1584 141.1584s141.1584-63.3344 141.1584-141.1584c0-77.824-63.3344-141.1584-141.1584-141.1584z" fill="#5B90EF" p-id="19316"></path><path d="M513.4848 217.4976m-39.2192 0a39.2192 39.2192 0 1 0 78.4384 0 39.2192 39.2192 0 1 0-78.4384 0Z" fill="#6491F2" p-id="19317"></path><path d="M642.6112 781.1584c137.9328-52.2752 236.2368-185.7024 236.2368-341.7088 0-201.472-163.8912-365.3632-365.3632-365.3632S148.1216 237.9776 148.1216 439.4496c0 159.1296 102.2976 294.7584 244.5824 344.7296l-62.5152 112.2304H260.864v51.2h514.1504v-51.2h-69.5296l-62.8736-115.2512zM199.3728 439.4496c0-173.2096 140.9024-314.1632 314.1632-314.1632 173.2096 0 314.1632 140.9024 314.1632 314.1632 0 173.2096-140.9024 314.1632-314.1632 314.1632-173.2608-0.0512-314.1632-140.9536-314.1632-314.1632z m244.2752 358.5536c22.6304 4.4032 45.9776 6.7584 69.888 6.7584 27.136 0 53.504-3.072 78.9504-8.704l54.6304 100.3008H388.8128l54.8352-98.3552z" fill="#5B90EF" p-id="19318"></path></svg>