<?xml version="1.0" standalone="no"?><!DOCTYPE svg PUBLIC "-//W3C//DTD SVG 1.1//EN" "http://www.w3.org/Graphics/SVG/1.1/DTD/svg11.dtd"><svg t="1634540588636" class="icon" viewBox="0 0 1024 1024" version="1.1" xmlns="http://www.w3.org/2000/svg" p-id="12239" xmlns:xlink="http://www.w3.org/1999/xlink" width="200" height="200"><defs><style type="text/css"></style></defs><path d="M512 482.967742m-188.70967705 0a188.70967705 188.70967705 0 1 0 377.4193541 0 188.70967705 188.70967705 0 1 0-377.4193541 0Z" fill="#D3EAFF" p-id="12240"></path><path d="M512 715.22580606c-127.74193506 0-232.25806494-104.51612901-232.25806494-232.25806406s104.51612901-232.25806494 232.25806494-232.25806495 232.25806494 104.51612901 232.25806494 232.25806495-104.51612901 232.25806494-232.25806494 232.25806406z m0-406.45161211c-95.80645195 0-174.19354805 78.38709697-174.19354805 174.19354805s78.38709697 174.19354805 174.19354805 174.19354804 174.19354805-78.38709697 174.19354805-174.19354804-78.38709697-174.19354805-174.19354805-174.19354805zM182.48387099 845.87096797L149.09677403 962h740.32258095l-33.38709698-116.12903203h-33.38709696c-140.80645195 98.70967705-467.41935498 98.70967705-608.22580606 0H182.48387099z" fill="#1890FF" p-id="12241"></path><path d="M482.967742 453.93548398m-58.06451602 0a58.06451602 58.06451602 0 1 0 116.12903203 0 58.06451602 58.06451602 0 1 0-116.12903203 0Z" fill="#FFC13D" p-id="12242"></path><path d="M512 889.41935498c225 0 406.45161299-181.45161299 406.45161299-406.45161299S737 76.51612901 512 76.51612901 105.54838701 257.96774199 105.54838701 482.967742s181.45161299 406.45161299 406.45161299 406.45161298z m0-58.06451602C318.93548398 831.35483896 163.61290302 676.03225801 163.61290302 482.967742S318.93548398 134.58064502 512 134.58064502s348.38709698 155.32258096 348.38709698 348.38709698-155.32258096 348.38709698-348.38709698 348.38709696z" fill="#1890FF" p-id="12243"></path></svg>