<?xml version="1.0" standalone="no"?><!DOCTYPE svg PUBLIC "-//W3C//DTD SVG 1.1//EN" "http://www.w3.org/Graphics/SVG/1.1/DTD/svg11.dtd"><svg t="1634621954116" class="icon" viewBox="0 0 1024 1024" version="1.1" xmlns="http://www.w3.org/2000/svg" p-id="30219" xmlns:xlink="http://www.w3.org/1999/xlink" width="200" height="200"><defs><style type="text/css"></style></defs><path d="M0.6 512c0 282.8 229.2 512 512 512s512-229.2 512-512S795.4 0 512.6 0 0.6 229.2 0.6 512z" fill="#FFF4D4" p-id="30220"></path><path d="M851.2 757.8V545.9c-323.3 50.4-623.9 0-623.9 0v211.9" fill="#300C13" opacity=".12" p-id="30221"></path><path d="M851.2 762.5c-2.6 0-4.7-2.1-4.7-4.7V551.4c-142 20.3-285.6 26.4-428.8 18.1-97.1-5.3-166.4-15.1-185.7-18.1v206.4c0 2.6-2.1 4.7-4.7 4.7s-4.7-2.1-4.7-4.7v-212c0-1.4 0.6-2.7 1.7-3.6 1-0.9 2.4-1.3 3.8-1 0.7 0.1 76.3 12.6 190.3 18.8 144.3 8.4 289.1 2 432.1-18.9 1.4-0.2 2.8 0.2 3.8 1.1 1.1 0.9 1.6 2.2 1.6 3.6v211.9c0 2.6-2 4.8-4.7 4.8z" fill="#300C13" opacity=".12" p-id="30222"></path><path d="M851.2 757.8c0 20.7-139.7 60.5-312 60.5s-312-39.7-312-60.5" fill="#300C13" opacity=".12" p-id="30223"></path><path d="M539.2 823.1c-74.5 0.4-148.8-7.2-221.6-22.6-23.1-4.8-45.7-11.5-67.6-20.1-18.7-7.9-27.4-15-27.4-22.5 0-2.6 2.1-4.7 4.7-4.7s4.7 2.1 4.7 4.7c0 1.3 4.1 6.6 21.9 14 21.5 8.4 43.6 14.9 66.1 19.5 144.6 29.8 293.8 29.8 438.5 0 22.6-4.6 44.7-11.2 66.1-19.5 17.8-7.4 21.9-12.7 21.9-14 0-2.6 2.1-4.7 4.7-4.7s4.7 2.1 4.7 4.7c0 7.5-8.7 14.7-27.4 22.5-21.9 8.6-44.6 15.3-67.6 20.1-72.9 15.4-147.2 23-221.7 22.6zM230.3 538.7c0 24.6 139.7 44.6 312 44.6s312-20 312-44.6-139.7-44.6-312-44.6-312 20-312 44.6z" fill="#300C13" opacity=".12" p-id="30224"></path><path d="M542.3 588.1c-74 0.6-147.9-3.8-221.2-13.1-23-2.8-45.6-7.6-67.7-14.4-18.9-6.4-27.7-13.3-27.7-21.8s8.8-15.4 27.7-21.8c22.1-6.8 44.8-11.6 67.7-14.4 73.4-9.4 147.3-13.8 221.2-13.2 74-0.6 147.9 3.8 221.2 13.1 23 2.8 45.6 7.6 67.7 14.4 18.9 6.4 27.7 13.3 27.7 21.8s-8.8 15.4-27.7 21.8c-22.1 6.8-44.8 11.6-67.7 14.4-73.3 9.4-147.3 13.8-221.2 13.2z m0-89.3c-73.5-0.6-147 3.7-219.9 13-69 9.9-87.4 21.9-87.4 26.9s18.2 17 87.4 26.9c72.9 9.3 146.4 13.6 219.9 13 73.5 0.6 147-3.7 219.9-13 69-9.9 87.4-21.9 87.4-26.9s-18.2-17-87.4-26.9c-72.9-9.3-146.4-13.6-219.9-13z" fill="#300C13" opacity=".12" p-id="30225"></path><path d="M819.4 523v-54.7H265.2V523" fill="#300C13" opacity=".12" p-id="30226"></path><path d="M819.4 527.7c-2.6 0-4.7-2.1-4.7-4.7v-50H269.9v50c0 2.6-2.1 4.7-4.7 4.7s-4.7-2.1-4.7-4.7v-54.7c0-2.6 2.1-4.7 4.7-4.7h554.2c2.6 0 4.7 2.1 4.7 4.7V523c0 2.6-2.1 4.7-4.7 4.7z" fill="#300C13" opacity=".12" p-id="30227"></path><path d="M265.2 461.4c0 16.3 124.1 29.5 277.1 29.5s277.1-13.2 277.1-29.5-124.1-29.5-277.1-29.5-277.1 13.2-277.1 29.5z" fill="#300C13" opacity=".12" p-id="30228"></path><path d="M542.3 495.7c-65.6 0.4-131.1-2.5-196.4-8.7-20.2-1.8-40.3-5-60-9.5-17.7-4.5-25.3-9.3-25.3-16.1 0-6.8 7.6-11.6 25.3-16.1 19.8-4.5 39.8-7.7 60-9.5 130.7-11.6 262.2-11.6 392.9 0 20.2 1.8 40.3 5 60 9.5 17.7 4.5 25.3 9.3 25.3 16.1 0 6.8-7.6 11.6-25.3 16.1-19.8 4.5-39.8 7.7-60 9.5-65.4 6.2-130.9 9.1-196.5 8.7z m-272.1-34.3c2.2 2.1 14.8 10 82 16.8 51.5 5.2 119 8.1 190 8.1s138.5-2.9 190-8.1c67.2-6.8 79.9-14.7 82-16.8-2.2-2.1-14.8-10-82-16.8-51.5-5.2-119-8.1-190-8.1s-138.5 2.9-190 8.1c-67.2 6.8-79.8 14.7-82 16.8z m584.3 296.4V545.9c-303.8 50.4-586.2 0-586.2 0v211.9" fill="#300C13" opacity=".12" p-id="30229"></path><path d="M854.5 762.5c-2.6 0-4.7-2.1-4.7-4.7V551.5c-133.2 20.3-268.2 26.3-402.6 18-90.6-5.3-155.5-15-174.2-18v206.4c0 2.6-2.1 4.7-4.7 4.7s-4.7-2.1-4.7-4.7v-212c0-1.4 0.6-2.7 1.7-3.6 1-0.9 2.4-1.3 3.8-1 59.2 9.4 118.9 15.7 178.8 18.8 135.6 8.4 271.6 2.1 405.8-18.8 1.4-0.2 2.7 0.2 3.8 1 1.1 0.9 1.7 2.2 1.7 3.6v211.9c0 2.6-2.1 4.7-4.7 4.7z" fill="#300C13" opacity=".12" p-id="30230"></path><path d="M854.5 757.8c0 20.7-131.3 60.5-293.2 60.5s-293.2-39.6-293.2-60.5" fill="#300C13" opacity=".12" p-id="30231"></path><path d="M561.3 823.1c-70.1 0.4-140-7.2-208.3-22.6-21.8-4.8-43.1-11.5-63.6-20.1-17.6-7.9-25.8-15-25.8-22.5 0-2.6 2.1-4.7 4.7-4.7s4.7 2.1 4.7 4.7c0 0 0.6 5.1 20.2 13.9 20 8.4 40.7 14.9 61.9 19.5 135.9 29.8 276.6 29.8 412.4 0 21.2-4.7 41.9-11.2 61.9-19.5 19.7-8.8 20.2-13.9 20.2-13.9 0-2.6 2.1-4.7 4.7-4.7s4.7 2.1 4.7 4.7c0 7.5-8.2 14.6-25.8 22.5-20.6 8.6-41.9 15.3-63.6 20.1-68.3 15.4-138.2 22.9-208.3 22.6zM268.2 548.1c0 24.6 131.9 44.6 294.6 44.6s294.6-19.9 294.6-44.6-131.9-44.6-294.6-44.6-294.6 20-294.6 44.6z" fill="#300C13" opacity=".12" p-id="30232"></path><path d="M562.8 597.5c-69.9 0.6-139.7-3.8-209-13.1-21.7-2.8-43.2-7.7-64-14.4-17.7-6.3-26.2-13.5-26.2-21.8s8.6-15.5 26.2-21.8c20.9-6.8 42.3-11.6 64-14.4 69.3-9.4 139.1-13.7 209-13.1 69.9-0.6 139.7 3.8 209 13.1 21.7 2.8 43.2 7.7 64 14.4 17.7 6.3 26.2 13.5 26.2 21.8s-8.6 15.5-26.2 21.8c-20.9 6.8-42.3 11.6-64 14.4-69.3 9.3-139.1 13.7-209 13.1z m0-89.3c-69.4-0.6-138.8 3.7-207.6 13-21.1 2.8-42 7.5-62.2 14-14.8 5.3-20 10.3-20 13 0 2.7 5.2 7.7 20 13 20.3 6.5 41.1 11.2 62.2 14 137.9 17.3 277.4 17.3 415.2 0 21.1-2.8 42-7.5 62.2-14 14.8-5.3 20-10.3 20-13 0-2.7-5.2-7.7-20-13-20.3-6.5-41.1-11.2-62.2-14-68.8-9.3-138.2-13.6-207.6-13z" fill="#300C13" opacity=".12" p-id="30233"></path><path d="M824.5 532.4v-64.1H301v64.1" fill="#300C13" opacity=".12" p-id="30234"></path><path d="M824.5 537.1c-2.6 0-4.7-2.1-4.7-4.7v-59.6h-514v59.6c0 2.6-2.1 4.7-4.7 4.7s-4.7-2.1-4.7-4.7v-64.3c0-2.6 2.1-4.7 4.7-4.7h523.4c2.6 0 4.7 2.1 4.7 4.7v64.3c-0.1 2.6-2.2 4.7-4.7 4.7z" fill="#300C13" opacity=".12" p-id="30235"></path><path d="M301 469.2c0 16.3 117.2 29.5 261.8 29.5s261.7-13.2 261.7-29.5-117.2-29.5-261.8-29.5S301 452.9 301 469.2z" fill="#300C13" opacity=".12" p-id="30236"></path><path d="M562.8 503.4c-62 0.4-123.9-2.5-185.6-8.7-19.1-1.8-38.1-5-56.7-9.5-16.8-4.5-24-9.3-24-16 0-6.7 7.2-11.5 24-16 18.7-4.5 37.6-7.7 56.7-9.5 123.5-11.6 247.8-11.6 371.2 0 19.1 1.8 38.1 5 56.7 9.5 16.8 4.5 24 9.3 24 16 0 6.7-7.2 11.5-24 16-18.7 4.5-37.6 7.7-56.7 9.5-61.7 6.2-123.6 9.1-185.6 8.7zM306 469.2c1.8 1.9 12.9 9.9 77.2 16.8 119.4 10.8 239.6 10.8 359 0 64.3-6.9 75.4-14.9 77.2-16.8-1.8-1.9-12.9-9.9-77.2-16.8-119.4-10.8-239.6-10.8-359 0-64.3 6.9-75.4 14.9-77.2 16.8zM230.4 545.9v211.9m0 4.7c-2.6 0-4.7-2.1-4.7-4.7V545.9c0-2.6 2.1-4.7 4.7-4.7s4.7 2.1 4.7 4.7v211.9c0 2.6-2.1 4.7-4.7 4.7z" fill="#300C13" opacity=".12" p-id="30237"></path><path d="M821 524.1c21.3 6 33.3 12.9 33.3 20.1 0 24.7-139.7 44.6-312 44.6s-312-20-312-44.6c0-7.3 12.1-14.1 33.6-20.2" fill="#300C13" opacity=".12" p-id="30238"></path><path d="M542.3 593.7c-74 0.6-147.9-3.8-221.2-13.1-23-2.8-45.6-7.6-67.7-14.4-18.9-6.4-27.7-13.3-27.7-21.8 0-9.7 11.8-17.6 37-24.7 2.5-0.6 5.1 0.9 5.7 3.4 0.6 2.4-0.8 4.8-3.1 5.6-29.3 8.3-30.2 14.9-30.2 15.7 0 5 18.2 17 87.4 26.9 72.9 9.3 146.4 13.6 219.9 13 73.5 0.6 147-3.7 219.9-13 69-9.9 87.4-21.9 87.4-26.9 0-0.7-0.8-7.4-29.9-15.6-2.5-0.8-3.8-3.5-3-5.9 0.8-2.3 3.2-3.7 5.6-3.1 25.1 7.1 36.7 14.9 36.7 24.6 0 8.5-8.8 15.4-27.7 21.8-22.1 6.8-44.8 11.6-67.7 14.4-73.5 9.2-147.4 13.6-221.4 13.1zM854.3 757.8c0 20.7-139.7 60.5-312 60.5s-312-39.7-312-60.5" fill="#300C13" opacity=".12" p-id="30239"></path><path d="M542.3 823.1c-74.5 0.4-148.8-7.2-221.6-22.6-23.1-4.8-45.7-11.5-67.6-20.1-18.7-7.9-27.4-15-27.4-22.5 0-2.6 2.1-4.7 4.7-4.7s4.7 2.1 4.7 4.7c0 1.3 4.1 6.6 21.9 14 21.5 8.4 43.6 14.9 66.1 19.5 144.6 29.8 293.8 29.8 438.5 0 22.6-4.6 44.7-11.2 66.1-19.5 17.8-7.4 21.9-12.7 21.9-14 0-2.6 2.1-4.7 4.7-4.7s4.7 2.1 4.7 4.7c0 7.5-8.7 14.7-27.4 22.5-21.9 8.6-44.6 15.3-67.6 20.1-72.9 15.4-147.2 23-221.7 22.6zM265.2 473.8v54.7m0 4.7c-2.6 0-4.7-2.1-4.7-4.7v-54.7c0-2.6 2.1-4.7 4.7-4.7s4.7 2.1 4.7 4.7v54.7c0 2.6-2.1 4.7-4.7 4.7zM819.4 528.5v-54.7m0 59.4c-2.6 0-4.7-2.1-4.7-4.7v-54.7c0-2.6 2.1-4.7 4.7-4.7s4.7 2.1 4.7 4.7v54.7c0 2.6-2.1 4.7-4.7 4.7z" fill="#300C13" opacity=".12" p-id="30240"></path><path d="M265.2 466.9c0 16.3 124.1 29.5 277.1 29.5s277.1-13.2 277.1-29.5-124.1-29.5-277.1-29.5-277.1 13.2-277.1 29.5z" fill="#300C13" opacity=".12" p-id="30241"></path><path d="M542.3 501.2c-65.6 0.4-131.1-2.5-196.4-8.7-20.2-1.8-40.3-5-60-9.5-17.7-4.5-25.3-9.3-25.3-16.1 0-6.8 7.6-11.6 25.3-16.1 19.8-4.5 39.8-7.7 60-9.5 130.7-11.6 262.2-11.6 392.9 0 20.2 1.8 40.3 5 60 9.5 17.7 4.5 25.3 9.3 25.3 16.1 0 6.8-7.6 11.6-25.3 16.1-19.8 4.5-39.8 7.7-60 9.5-65.4 6.2-130.9 9.1-196.5 8.7z m-272.1-34.3c2.2 2.1 14.8 10 82 16.8 51.5 5.2 119 8.1 190 8.1s138.5-2.9 190-8.1c67.2-6.8 79.9-14.7 82-16.8-2.2-2.1-14.8-10-82-16.8-51.5-5.2-119-8-190-8s-138.5 2.9-190 8.1c-67.2 6.7-79.8 14.6-82 16.7zM819.4 528.5c0 16.3-124 29.5-277 29.5s-277.1-13.2-277.1-29.5" fill="#300C13" opacity=".12" p-id="30242"></path><path d="M542.3 562.7c-65.6 0.4-131.1-2.5-196.4-8.7-20.2-1.8-40.3-5-60-9.5-17.7-4.5-25.3-9.3-25.3-16.1 0-2.6 2.2-4.7 4.8-4.7 2.4 0 4.4 1.9 4.6 4.3 0.9 1.2 9.9 9.8 82.5 17.2 51.5 5.2 119 8.1 190 8.1s138.5-2.9 190-8.1c72.5-7.3 81.5-16 82.5-17.2 0.2-2.6 2.5-4.5 5.1-4.3 2.4 0.2 4.2 2.2 4.3 4.6 0 6.8-7.6 11.6-25.3 16.1-19.8 4.5-39.8 7.7-60 9.5-65.6 6.3-131.2 9.2-196.8 8.8zM358.8 580.3v222.8m0 4.8c-2.6 0-4.7-2.1-4.7-4.7V580.3c0-2.6 2.1-4.7 4.7-4.7s4.7 2.1 4.7 4.7v222.8c0 2.7-2.1 4.8-4.7 4.8z" fill="#300C13" opacity=".12" p-id="30243"></path><path d="M315 640.5s28.9 19.6 94.8 11.4m-31 6.7c-44.8 0-65.5-13.5-66.5-14.2-2.2-1.4-2.7-4.4-1.3-6.5 1.4-2.2 4.4-2.7 6.5-1.3 0.4 0.2 28.8 18.4 91.6 10.7 2.6-0.3 4.9 1.5 5.2 4.1 0.3 2.6-1.5 4.9-4.1 5.2-10.5 1.3-20.9 2-31.4 2zM315 708.5s28.9 19.6 94.8 11.4m-31 6.7c-44.8 0-65.5-13.5-66.5-14.2-2.2-1.4-2.7-4.4-1.3-6.5 1.4-2.2 4.4-2.7 6.5-1.3 0.4 0.2 28.8 18.4 91.6 10.7 2.6-0.3 4.9 1.5 5.2 4.1 0.3 2.6-1.5 4.9-4.1 5.2-10.5 1.3-20.9 2-31.4 2zM577.4 389.3s-25.3 25.3-39.1 29.3-53 21.3-56.3 46c-0.5 7.3-1.6 14.5-3.3 21.6 0 0 53 1.8 111.1 0.3 58.6-1.5 72.4-2.5 72.4-2.5s2.4 1.6-0.3-10.3c-6.1-26.8-32.4-44.2-44.8-51.1-15.6-8.6-45.4-19.5-39.7-33.3z" fill="#300C13" opacity=".12" p-id="30244"></path><path d="M541.9 491.9c-34.3 0-60.2-0.8-63.1-0.9-2.2 0.1-4.2-1.4-4.7-3.6-0.2-0.9-0.2-1.9 0.2-2.8 0.2-1 0.9-4.9 3-20.6 3.7-27.5 45.3-45.7 59.6-49.8 10.4-3 30.3-21.3 37.1-28.1 1.6-1.6 4-1.8 5.9-0.6 1.9 1.2 2.6 3.6 1.7 5.7-3 7.1 15.3 16.2 27.3 22.1 3.7 1.8 7.2 3.6 10.3 5.3 14.9 8.3 40.8 26.3 47.1 54.2 1.9 8.3 2.2 12.9-1.1 15.2-1.1 0.7-2.3 1-3.6 0.9-3.5 0.2-20.4 1.1-71.8 2.4-16.7 0.4-33 0.6-47.9 0.6z m-57.6-10.2c15 0.4 58.7 1.4 105.4 0.2 42.5-1.1 61.4-1.9 68.6-2.3-0.2-1.1-0.4-2.7-0.9-4.7-5.7-25.2-31.6-42-42.5-48.1-2.9-1.6-6.3-3.3-9.9-5.1-12.2-6-26.5-13.1-31.3-22.3-9.8 9.9-21.3 17.9-34 23.7-15.4 4.5-50.2 21.3-53 42.1-1 7.2-1.8 12.8-2.4 16.5z" fill="#300C13" opacity=".12" p-id="30245"></path><path d="M435.6 364.5c-11.5 12-24.9 22-39.6 29.6-13 6.1-48.5 20.1-54.2 44.2-3.3 12.9-3.5 26.4-0.7 39.4 0 0 57.7 7 116.5 8.2 58.7 1.2 66.3 1.3 66.3 1.3 2.8-13.2 2.1-26.8-2.1-39.6-7.5-26.4-32.4-44.2-44.8-51.1-15.8-8.7-42.3-20.8-41.4-32z" fill="#300C13" opacity=".12" p-id="30246"></path><path d="M523.7 492c-0.1 0-7.8-0.1-66.4-1.3-58.2-1.1-116.4-8.2-116.9-8.2-1.9-0.3-3.5-1.6-4-3.4-3-13.8-2.8-28.1 0.7-41.7 5.7-24.1 36.2-38 52.6-45.5 1.6-0.7 3-1.4 4.2-1.9 14.2-7.4 27.1-17 38.2-28.6 1.3-1.5 3.5-1.9 5.3-1.1 1.8 0.8 3 2.7 2.8 4.7-0.1 1.1 0.6 4.3 8.8 10.2 7.1 4.9 14.6 9.2 22.3 13 2.7 1.4 5.3 2.8 7.6 4.1 8.9 4.9 38.4 23.3 47.1 54 4.4 13.7 5.2 28.3 2.1 42.3-0.5 2-2.3 3.4-4.4 3.4z m-178.8-18.5c13.1 1.5 62.8 6.8 112.7 7.8 39.6 0.8 56 1.1 62.4 1.2 1.5-11.3 0.5-22.7-2.8-33.6-7.9-27.8-36.9-45.1-42.6-48.3-2.3-1.3-4.8-2.6-7.5-4-12.6-5.4-24-13.4-33.4-23.4-10.6 10.2-22.6 18.7-35.6 25.3-1.2 0.6-2.7 1.2-4.3 2-13.9 6.3-42.7 19.4-47.4 39.1-2.9 11.1-3.4 22.6-1.5 33.9z" fill="#300C13" opacity=".12" p-id="30247"></path><path d="M405.7 399.2c7.3-10.7 15.9-20.4 25.6-29 1-0.9 1.7-1.7 2.3-2.2 0.3-0.3 0.7-0.6 1-0.9-8.8 11.1-14.9 24.1-17.8 37.9-0.1 8.4-2 16.6-5.7 24.1" fill="#300C13" opacity=".12" p-id="30248"></path><path d="M411.1 433.7c-1.6 0-3-0.8-3.9-2.1-1.2-1.8-1-4.1 0.4-5.7 2.7-6.9 4.2-14.2 4.6-21.6 0.4-3.3 1.1-6.5 2.1-9.7-1.6 1.7-2.9 3.6-4 5.6-0.6 2.5-3.1 4-5.6 3.5-2.5-0.6-4.1-3.1-3.6-5.6 0.4-1.8 1.5-6.7 26.9-31.4 1-0.9 1.8-1.7 2.3-2.2l1-1c1.8-1.7 4.6-1.7 6.4 0 1.8 1.7 2 4.5 0.5 6.4-8.2 10.4-14 22.6-16.8 35.5-1 9-3.4 24.6-7.8 27.5-0.7 0.6-1.6 0.9-2.5 0.8z" fill="#300C13" opacity=".12" p-id="30249"></path><path d="M433.9 411.2c-8.9-17.4 1.4-44.3 1.4-44.3-0.6 12.6 4.6 24.8 14 33.2 0 0 14.5 10.5 14.9 20.8" fill="#300C13" opacity=".12" p-id="30250"></path><path d="M464.2 425.7c-2.5 0-4.6-2-4.7-4.5-0.2-6.6-9.7-14.8-13-17.2-0.2-0.1-0.4-0.3-0.5-0.5-4.4-4.3-8.1-9.4-10.8-14.9-0.9 6.9 0.1 14 2.9 20.4 1.1 2.3 0.1 5.1-2.2 6.2-2.2 1.1-4.9 0.2-6.1-1.9-9-17.5-0.8-42.5 0.9-47.3 0.3-1.3 1.1-2.5 2.3-3.2 2.3-1.3 5.1-0.5 6.4 1.8 0.7 1.2 0.8 2.6 0.4 3.8 0.3 10.7 4.8 20.8 12.6 28.1 2.7 2 16.1 12.5 16.5 24.2 0.1 2.6-1.9 4.8-4.5 4.9l-0.2 0.1zM548.5 423.7c6.9-11 15.1-21.1 24.5-30 0.9-1 1.7-1.7 2.2-2.3l1-1c-8.4 11.4-14 24.7-16.3 38.7 0.3 8.4-1.3 16.7-4.8 24.3" fill="#300C13" opacity=".12" p-id="30251"></path><path d="M555.1 458c-1.5 0-2.9-0.7-3.8-1.9-1.3-1.7-1.2-4.1 0.2-5.7 2.4-7 3.7-14.3 3.8-21.7 0.3-3.3 0.8-6.6 1.7-9.8-1.5 1.7-2.8 3.7-3.8 5.7-0.5 2.5-3 4.2-5.5 3.7s-4.1-2.9-3.7-5.4c0.3-1.9 1.2-6.8 25.7-32.4 0.9-1 1.7-1.8 2.2-2.3l1-1c1.8-1.9 4.8-1.9 6.6-0.1 1.7 1.7 1.9 4.3 0.5 6.2-7.8 10.7-13.1 23.1-15.4 36.1-0.7 9-2.5 24.7-6.7 27.8-0.8 0.5-1.8 0.7-2.8 0.8z" fill="#300C13" opacity=".12" p-id="30252"></path><path d="M577.1 434.7c-9.6-17-0.3-44.3-0.3-44.3 0 12.6 5.6 24.6 15.3 32.6 0 0 14.9 9.9 15.7 20.2" fill="#300C13" opacity=".12" p-id="30253"></path><path d="M607.7 447.9c-2.4 0-4.5-1.9-4.7-4.3-0.5-6.6-10.2-14.4-13.6-16.7-0.2-0.1-0.4-0.3-0.6-0.4-4.6-4.1-8.4-9.1-11.3-14.5-0.7 7 0.6 14.1 3.7 20.4 1.3 2.2 0.5 5.1-1.7 6.4-2.2 1.3-5.1 0.5-6.4-1.7l-0.1-0.1c-9.7-17.1-2.5-42.5-0.9-47.3 0.2-1.3 1-2.5 2.2-3.2 1.7-1.1 3.8-0.9 5.4 0.3 1.5 1.2 2.1 3.2 1.6 5.1 0.8 10.6 5.7 20.6 13.7 27.6 2.8 1.9 16.6 11.9 17.5 23.6 0.2 2.5-1.7 4.8-4.2 5h-0.1c-0.1-0.2-0.3-0.3-0.5-0.2z" fill="#300C13" opacity=".12" p-id="30254"></path><path d="M677.9 369.4s-25.3 25.3-39.1 29.3-50.6 21.8-56.3 46c-3.2 13.7-3.2 28 0 41.7 0 0 54.1-0.6 110.8-4.7 24.2-0.9 48.3-3.6 72.1-8.2 0 0 2.9 4.9-3-19.5-6.5-26.7-32.4-44.2-44.8-51.1-15.6-8.8-45.5-19.8-39.7-33.5z" fill="#300C13" opacity=".12" p-id="30255"></path><path d="M582.4 491.1c-2.1 0-3.9-1.4-4.5-3.4-3.5-14.5-3.5-29.6-0.1-44.1 6.1-25.7 43.5-44.7 59.6-49.4 10.4-3 30.3-21.3 37.1-28.1 1.6-1.6 4-1.8 5.9-0.6 1.9 1.2 2.6 3.6 1.7 5.7-3 7.1 15.3 16.2 27.3 22.1 3.7 1.8 7.2 3.6 10.3 5.3 11.8 6.6 40 25 47.1 54.1 1.8 7.5 3 13.1 3.5 16.6 0.4 2.9 1.1 7.2-2.8 8.8-0.9 0.4-1.9 0.5-2.9 0.2-23.5 4.1-47.3 6.8-71.1 8-56.2 4.2-110.5 4.8-111.1 4.8z m91.7-111.6c-9.8 9.9-21.3 17.9-34 23.7-12.3 3.6-47.8 20.4-53.1 42.5-2.7 11.8-3 24-0.8 35.9 13.3-0.2 59.3-1.2 106.7-4.7 22.8-1.2 45.5-3.7 68-7.4-0.4-2.6-1.3-7-3.2-14.6-6.2-25.6-31.8-42.2-42.5-48.1-2.9-1.6-6.3-3.3-9.9-5.1-12.1-6-26.4-13.1-31.2-22.2z" fill="#300C13" opacity=".12" p-id="30256"></path><path d="M647.9 404.9c6.9-11 15.1-21.1 24.5-30 0.9-1 1.7-1.7 2.2-2.3l1-1c-8.4 11.4-14 24.7-16.3 38.7 0.3 8.4-1.3 16.7-4.8 24.3" fill="#300C13" opacity=".12" p-id="30257"></path><path d="M654.4 439.3c-1.5 0-2.9-0.7-3.8-1.9-1.3-1.7-1.2-4.1 0.2-5.7 2.4-7 3.7-14.3 3.8-21.7 0.3-3.3 0.8-6.6 1.7-9.8-1.5 1.7-2.8 3.7-3.8 5.7-0.5 2.5-3 4.2-5.5 3.7s-4.1-2.9-3.7-5.4c0.3-1.9 1.2-6.8 25.7-32.4 0.9-1 1.7-1.8 2.2-2.3l1-1c1.8-1.9 4.8-1.9 6.6-0.1 1.7 1.7 1.9 4.3 0.5 6.2-7.8 10.7-13.1 23.1-15.4 36.1-0.7 9.1-2.5 24.7-6.7 27.8-0.9 0.5-1.8 0.8-2.8 0.8z" fill="#300C13" opacity=".12" p-id="30258"></path><path d="M676.5 415.9c-9.6-17-0.3-44.3-0.3-44.3 0 12.6 5.6 24.6 15.3 32.6 0 0 14.9 9.9 15.7 20.2" fill="#300C13" opacity=".12" p-id="30259"></path><path d="M707.1 429.2c-2.4 0-4.5-1.9-4.7-4.3-0.5-6.5-10.2-14.4-13.6-16.7-0.2-0.1-0.4-0.3-0.6-0.4-4.6-4.1-8.4-9-11.3-14.4-0.7 7 0.6 14 3.7 20.3 1.2 2.3 0.4 5.1-1.9 6.4-2.2 1.2-5 0.4-6.3-1.8-9.7-17.2-2.5-42.5-0.9-47.3 0.2-1.3 1-2.5 2.2-3.2 1.7-1.1 3.9-0.9 5.4 0.3 1.5 1.2 2.1 3.2 1.6 5.1 0.8 10.6 5.7 20.6 13.7 27.6 2.8 1.9 16.6 11.9 17.5 23.6 0.2 2.5-1.7 4.8-4.2 5h-0.1c-0.3-0.2-0.4-0.2-0.5-0.2zM660.8 488c-0.3 0.8-0.8 0.5-0.8 0.5s-14.1 1-73.9 2.5c-24.5 0.7-48.1 0.7-67.3 0.5 2.7-13.4 1.9-27.3-2.3-40.3-1.9-6.5-4.8-12.7-8.5-18.4 10-5.6 26.6-12.2 31.2-15.9C552.3 405.7 564 393 574 379c-4.5 10.8 12 30.5 27.2 38.1-10.8 7.6-18.8 18.5-22.7 31.1-3.2 14-3.2 28.5 0.1 42.5-0.1 0 36.9-0.2 82.2-2.7z" fill="#300C13" opacity=".12" p-id="30260"></path><path d="M540.1 496.3c-7 0-14.1 0-21.4-0.1-1.4 0-2.8-0.7-3.7-1.8-0.9-1.1-1.2-2.6-0.9-4 2.4-12.6 1.6-25.6-2.2-37.9-1.7-6.1-4.4-11.9-7.9-17.1-1.4-2.2-0.8-5.2 1.5-6.6 0.1-0.1 0.2-0.1 0.2-0.1 4.6-2.6 10.3-5.3 15.9-7.8 5.1-2.2 10.1-4.7 14.8-7.6 12.7-11 24.1-23.3 33.9-36.9 1.4-2 4-2.6 6.1-1.4 2.1 1.2 3 3.7 2.1 5.9-3 7.3 10.7 25 25 32.1 1.5 0.7 2.4 2.2 2.6 3.8 0.1 1.6-0.6 3.2-1.9 4.2-9.9 6.9-17.3 16.9-21 28.4-2.8 12.1-3 24.6-0.7 36.7 10.5-0.2 41.9-0.8 78.2-2.8 1.5-0.1 3 0.6 4 1.8 0.9 1.2 1.2 2.8 0.7 4.3-0.5 1.7-1.8 3-3.5 3.6-0.7 0.2-1.4 0.3-2.1 0.2-3.6 0.2-20.8 1.2-73.3 2.5-14.7 0.4-30.1 0.6-46.4 0.6z m-15.8-9.4c17.1 0.1 33.3 0.1 48.5-0.2-2.3-13.1-1.9-26.5 1.1-39.4 3.3-11.5 10-21.7 19.1-29.4-9.9-6.4-17.8-15.5-22.7-26.2-8.4 10.6-17.8 20.4-28.2 29-5.3 3.4-10.8 6.3-16.6 8.7-3.7 1.7-7.5 3.5-10.9 5.2 2.8 4.8 4.9 10 6.4 15.3 3.5 12 4.7 24.6 3.3 37z" fill="#300C13" opacity=".12" p-id="30261"></path><path d="M518.7 491.5c-6.6 0-12.7-0.1-18.1-0.2-1.5 0-3.2 0-5-0.1-10-0.1-24.4-0.4-44.8-0.8-59.8-1.1-118.9-8.4-118.9-8.4-2.9-13.3-2.6-27.1 0.8-40.2 5.8-24.7 42.1-38.9 55.4-45.2 17.2-9.8 32.7-22.4 46-37.1-0.9 11.5 20.7 30.7 36.4 39.5 14.9 8.2 27.7 19.8 37.3 33.8 3.8 5.6 6.7 11.8 8.5 18.4 4.3 13 5.1 26.9 2.4 40.3z" fill="#300C13" opacity=".12" p-id="30262"></path><path d="M518.7 496.2c-6.7 0-12.9-0.1-18.2-0.2-1.4 0-3.2 0-5-0.1-9.5-0.1-23.3-0.4-44.7-0.8-59.3-1.1-118.7-8.3-119.3-8.4-1.9-0.2-3.4-1.6-3.9-3.4-3.1-14-2.9-28.6 0.7-42.5 5.8-24.6 37-38.8 53.7-46.4 1.6-0.7 3-1.4 4.2-2 16.6-9.6 31.7-21.8 44.5-36 1.4-1.5 3.5-2 5.4-1.2 1.9 0.8 3 2.7 2.8 4.7-0.6 7.6 16.6 25.2 34.1 35 15.6 8.6 28.9 20.8 38.9 35.4 4 6.1 7.1 12.7 9.1 19.7 4.3 13.8 5.1 28.4 2.3 42.6-0.6 2.1-2.5 3.5-4.6 3.6z m-182.9-18.4c13.3 1.5 64.1 7 115.1 7.9 21.5 0.5 35.3 0.8 44.7 0.8h0.2c1.7 0.1 3.3 0.1 4.7 0.1 4.3 0.1 9.1 0.1 14.2 0.2 1.4-11.5 0.4-23.2-2.9-34.3-1.7-6.1-4.4-11.9-7.9-17.1-9.2-13.4-21.4-24.4-35.6-32.3-14.9-8.2-27.4-19.9-36.6-34.2-12.1 12.8-26.1 23.6-41.5 32-1.3 0.6-2.8 1.3-4.4 2-14.2 6.4-43.7 19.9-48.5 40-2.8 11.4-3.3 23.3-1.5 34.9z" fill="#300C13" opacity=".12" p-id="30263"></path><path d="M518.7 491.5c-0.1 0.1-0.1 0.1-0.1 0.2 0 0-2.8 0-18-0.4 5.5 0.1 11.6 0.2 18.1 0.2z" fill="#300C13" opacity=".12" p-id="30264"></path><path d="M518.7 496.4c-0.1 0-3 0-18.1-0.4-2.6-0.1-4.7-2.2-4.6-4.8 0.1-2.6 2.2-4.7 4.8-4.6 5.2 0.1 11.4 0.2 18 0.2 1.9 0 3.6 1.1 4.3 2.9 1 2.5-0.3 5.4-2.8 6.4-0.5 0.2-1.1 0.3-1.6 0.3zM765.3 477.6c-24.3 4.7-48.9 7.4-73.6 8.4-10.5 0.8-20.8 1.4-30.9 2-45.2 2.4-82.1 2.8-82.1 2.8-3.3-14-3.3-28.5-0.1-42.5 5.8-14.2 15.4-26.5 27.8-35.5 9.4-7.1 19.9-12.8 31-16.7 16.2-6.4 30.3-17.4 40.3-31.7 4.3 14.5 31.8 27.6 47.7 36.4 18.8 13.8 31.9 34 36.7 56.7 6.2 25.1 3.2 20.1 3.2 20.1z" fill="#300C13" opacity=".12" p-id="30265"></path><path d="M578.6 495.5c-2.1 0-3.9-1.4-4.5-3.4-3.5-14.8-3.6-30.1-0.1-44.9 6.1-15.2 16.4-28.4 29.7-38.1 8.4-6.6 17.7-11.8 27.7-15.5 1.5-0.6 2.9-1.2 4.2-1.7 15.3-6 28.6-16.3 38.2-29.6 1-1.6 2.7-2.5 4.6-2.3 1.9 0.2 3.4 1.5 3.9 3.3 3.2 10.8 24.7 22.4 39 30.1 2.3 1.2 4.5 2.4 6.5 3.5 20 14.4 33.9 35.7 39 59.7 1.9 7.7 3.1 13.3 3.6 16.9 0.4 2.9 1.1 7.2-2.8 8.8-0.9 0.4-1.9 0.5-2.9 0.2-24 4.2-48.3 6.9-72.6 8.2-10.3 0.7-20.7 1.4-31 2-44.9 2.4-82.1 2.8-82.5 2.8z m98.5-122.2c-10.4 11.8-23.3 21.1-37.8 27.2-1.5 0.6-3 1.2-4.5 1.9-9.2 3.5-17.8 8.3-25.5 14.3-11.5 8.3-20.6 19.6-26.2 32.7-2.8 12.1-3 24.6-0.7 36.7 10.5-0.2 41.9-0.8 78.2-2.8 10.2-0.6 20.5-1.2 30.8-2 23.3-1.3 46.6-3.8 69.6-7.6-0.4-2.6-1.4-7.1-3.3-14.9-4.6-21.5-16.8-40.6-34.4-53.7-2-1.1-4.1-2.3-6.4-3.5-15-6.8-28.5-16.4-39.8-28.3z" fill="#300C13" opacity=".12" p-id="30266"></path><path d="M810.5 757.8V545.9c-323.3 50.4-623.9 0-623.9 0v211.9m623.9 0c0 20.7-139.7 60.5-312 60.5s-312-39.7-312-60.5" fill="#FFFFFF" p-id="30267"></path><path d="M189.7 538.7c0 24.6 139.7 44.6 312 44.6s312-20 312-44.6-139.7-44.6-312-44.6-312 20-312 44.6z" fill="#FFFFFF" p-id="30268"></path><path d="M778.8 523v-54.7H224.6V523" fill="#FFFFFF" p-id="30269"></path><path d="M224.6 461.4c0 16.3 124.1 29.5 277.1 29.5s277.1-13.2 277.1-29.5-124.1-29.5-277.1-29.5-277.1 13.2-277.1 29.5z" fill="#FFFFFF" p-id="30270"></path><path d="M817.8 759.9V548c-303.8 50.4-586.2 0-586.2 0v211.9m586.2 0c0 20.7-131.3 60.5-293.2 60.5s-293.2-39.6-293.2-60.5" fill="#F29E51" p-id="30271"></path><path d="M231.5 550.2c0 24.6 131.9 44.6 294.6 44.6 162.7 0 294.6-20 294.6-44.6s-131.9-44.6-294.6-44.6-294.6 20-294.6 44.6z" fill="#F29E51" p-id="30272"></path><path d="M787.8 534.5v-64.1H264.3v64.1" fill="#F29E51" p-id="30273"></path><path d="M264.3 471.3c0 16.3 117.2 29.5 261.8 29.5s261.8-13.2 261.8-29.5-117.3-29.5-261.8-29.5-261.8 13.2-261.8 29.5z" fill="#F29E51" p-id="30274"></path><path d="M189.8 767.2c-5.2 0-9.4-4.2-9.4-9.4V545.9c0-5.2 4.2-9.4 9.4-9.4s9.4 4.2 9.4 9.4v211.9c0 5.2-4.2 9.4-9.4 9.4z" fill="#300C13" p-id="30275"></path><path d="M501.7 598.4c-74.2 0.6-148.3-3.8-221.9-13.2-88.1-12.6-99.5-28.5-99.5-40.9 0-15.8 21.6-23.9 40.4-29.3 5-1.4 10.2 1.5 11.6 6.5 1.4 5-1.5 10.2-6.5 11.6-9.4 1.8-18.2 5.6-26 11.1 3.6 3.2 20.3 14 90.7 23.4 70.1 8.4 140.6 12.4 211.1 11.9 70.6 0.5 141.1-3.5 211.1-11.9 70.4-9.4 87.2-20.2 90.7-23.4-7.7-5.5-16.5-9.2-25.8-11.1-5-1.4-7.9-6.6-6.5-11.6 1.4-5 6.6-7.9 11.6-6.5 18.7 5.3 40.2 13.4 40.2 29.1 0 12.4-11.3 28.3-99.5 40.9-73.4 9.5-147.5 14-221.7 13.4z m0 229.4c-74.8 0.4-149.4-7.2-222.6-22.7-23.3-4.8-46.2-11.6-68.4-20.3-20.9-8.8-30.2-17.1-30.2-26.9 0.1-5.2 4.3-9.4 9.5-9.3 4.6 0.1 8.5 3.5 9.2 8 3.9 5.1 30.4 18.9 92.3 31.9 138.9 27.3 281.9 27.3 420.8 0 61.8-13 88.4-26.8 92.3-31.9 0.7-5.1 5.5-8.7 10.6-8 4.6 0.7 8.1 4.6 8.1 9.3 0 9.8-9.3 18-30.2 26.9-22.2 8.7-45.1 15.5-68.4 20.3-73.5 15.5-148.2 23.1-223 22.7z" fill="#300C13" p-id="30276"></path><path d="M224.6 537.8c-5.2 0-9.4-4.2-9.4-9.4v-54.7c0-5.2 4.2-9.4 9.4-9.4s9.4 4.2 9.4 9.4v54.7c0 5.2-4.2 9.4-9.4 9.4z m554.2 0c-5.2 0-9.4-4.2-9.4-9.4v-54.7c0-5.2 4.2-9.4 9.4-9.4s9.4 4.2 9.4 9.4v54.7c0 5.2-4.2 9.4-9.4 9.4z" fill="#300C13" p-id="30277"></path><path d="M501.7 505.8c-65.7 0.4-131.5-2.5-196.9-8.7-20.4-1.9-40.7-5.1-60.7-9.6-15-3.8-28.9-8.9-28.9-20.6 0-11.7 14-16.8 29-20.6 20-4.5 40.3-7.8 60.7-9.6 131-11.6 262.8-11.6 393.8 0 20.4 1.9 40.7 5.1 60.7 9.6 15 3.8 28.9 8.9 28.9 20.6 0 11.7-13.9 16.8-28.9 20.6-20 4.5-40.3 7.8-60.7 9.6-65.5 6.2-131.3 9.1-197 8.7z m-261.3-38.9c25.1 6.8 50.9 11.1 76.8 12.6 50.6 4.9 116.2 7.5 184.5 7.5s133.7-2.7 184.5-7.5c26-1.6 51.7-5.8 76.8-12.6-25.1-6.8-50.9-11.1-76.8-12.6-50.6-4.9-116.2-7.5-184.5-7.5s-133.7 2.7-184.5 7.5c-25.9 1.5-51.7 5.7-76.8 12.6zM501.7 567.4c-65.7 0.4-131.5-2.5-196.9-8.7-20.4-1.9-40.7-5.1-60.7-9.6-15-3.8-28.9-8.9-28.9-20.6 0-5.2 4.2-9.4 9.4-9.4 4 0 7.6 2.6 8.9 6.4 3.2 2 18.8 9.3 83.7 15.6 50.6 4.9 116.2 7.5 184.5 7.5s133.7-2.7 184.5-7.5c64.9-6.2 80.6-13.6 83.7-15.6 1.7-4.9 7-7.5 11.9-5.9 3.8 1.3 6.4 4.9 6.4 8.9 0 11.7-13.9 16.8-28.9 20.6-20 4.5-40.3 7.8-60.7 9.6-65.5 6.2-131.2 9.1-196.9 8.7zM813.6 767.2c-5.2 0-9.4-4.2-9.4-9.4V545.9c0-5.2 4.2-9.4 9.4-9.4s9.4 4.2 9.4 9.4v211.9c0.1 5.2-4.2 9.4-9.4 9.4zM318.2 812.6c-5.2 0-9.4-4.2-9.4-9.4V580.3c0-5.2 4.2-9.4 9.4-9.4s9.4 4.2 9.4 9.4v222.9c0 5.2-4.2 9.4-9.4 9.4z" fill="#300C13" p-id="30278"></path><path d="M338.5 663.3c-46.5 0-68.3-14.3-69.3-15-4.3-2.9-5.4-8.7-2.5-13 2.9-4.3 8.7-5.4 13-2.6 0.6 0.4 28 17.4 88.4 9.9 5.2-0.6 9.8 3.1 10.5 8.2 0.6 5.2-3 9.9-8.2 10.5-10.7 1.3-21.3 2-31.9 2zM338.5 731.3c-46.5 0-68.3-14.3-69.3-15-4.3-2.9-5.4-8.7-2.5-13 2.9-4.3 8.7-5.4 13-2.6 0.6 0.4 28 17.4 88.4 9.9 5.2-0.6 9.9 3 10.5 8.2 0.6 5.2-3 9.9-8.2 10.5-10.7 1.3-21.3 2-31.9 2z" fill="#300C13" p-id="30279"></path><path d="M536.8 389.3s-25.3 25.3-39.1 29.3-53 21.3-56.3 46c-0.5 7.3-1.6 14.5-3.3 21.6 0 0 53 1.8 111.1 0.3 58.6-1.5 72.4-2.5 72.4-2.5s2.4 1.6-0.3-10.3c-6.1-26.8-32.4-44.2-44.8-51.1-15.6-8.6-45.4-19.5-39.7-33.3z" fill="#F7F7F7" p-id="30280"></path><path d="M395 364.5c-11.5 12-24.9 22-39.6 29.6-13 6.1-48.5 20.1-54.2 44.2-3.3 12.9-3.5 26.4-0.7 39.4 0 0 57.7 7 116.5 8.2 58.7 1.2 66.3 1.3 66.3 1.3 2.8-13.2 2.1-26.8-2.1-39.6-7.5-26.4-32.4-44.2-44.8-51.1-15.8-8.7-42.3-20.8-41.4-32z" fill="#FFFFFF" p-id="30281"></path><path d="M370.5 430.3c-0.4 0-0.8-0.2-1-0.5-0.3-0.5-0.2-1.1 0.2-1.5 3.3-7.4 5.1-15.3 5.3-23.4 1.7-10.3 5.6-20 11.3-28.7-7.8 6.8-14.6 14.6-20.1 23.3-0.1 0.6-0.7 1.1-1.3 1-0.6-0.1-1.1-0.7-1-1.3v-0.2c7.3-11 16-21 25.9-29.6 1-0.9 1.7-1.7 2.3-2.2l1-0.9 1.7 1.6c-8.7 10.9-14.7 23.7-17.6 37.3 0 8.7-2.2 17.3-6.3 25 0.1 0-0.2 0.1-0.4 0.1z" fill="#E8E8E8" p-id="30282"></path><path d="M423.5 422.2c-0.6 0-1.1-0.5-1.1-1.1-0.4-9.7-14.3-19.9-14.4-19.9l-0.1-0.1c-7.4-7.2-12.4-16.6-14.2-26.8-3.9 11.9-3.7 24.8 0.7 36.6 0.3 0.6 0.1 1.2-0.5 1.5-0.6 0.3-1.2 0.1-1.5-0.5-8.5-16.5-0.3-40.8 1.2-44.7 0.1-0.4 0.3-0.8 0.7-1.1l2.8-1.6-1.2 3c0 0.1 0 0.2-0.1 0.3 0 12 5 23.5 13.8 31.6 1.3 0.9 14.9 11.2 15.3 21.7-0.2 0.6-0.8 1-1.4 1.1z" fill="#E8E8E8" p-id="30283"></path><path d="M514.5 454.5c-0.4 0-0.7-0.2-0.9-0.5-0.4-0.4-0.3-1.1 0.2-1.5 3-7.5 4.5-15.5 4.4-23.6 1.3-10.3 4.7-20.2 10.1-29.1-7.5 7.1-14 15.2-19.2 24.1-0.1 0.6-0.7 1-1.3 0.9-0.6-0.1-1-0.7-0.9-1.3 6.8-11.3 15.2-21.6 24.8-30.6 0.9-1 1.7-1.8 2.2-2.3l1-1 1.7 1.5c-8.2 11.3-13.7 24.3-16.1 38 0.4 8.7-1.5 17.4-5.3 25.2-0.2 0-0.5 0.1-0.7 0.2z" fill="#E0E0E0" p-id="30284"></path><path d="M567.1 444.4c-0.6 0-1.1-0.5-1.1-1.1-0.7-9.6-15-19.3-15.2-19.4l-0.1-0.1c-7.8-6.9-13.1-16.1-15.2-26.3-3.5 12.1-2.7 25 2.1 36.6 0.3 0.6 0.1 1.2-0.4 1.6-0.6 0.3-1.2 0.1-1.6-0.4-9.1-16.2-1.9-40.8-0.6-44.7 0.1-0.4 0.2-0.9 0.6-1.1l2.7-1.7-1 3.1c0 0.1 0 0.2-0.1 0.3 0.5 12 5.9 23.2 15 31 1.3 0.9 15.3 10.6 16.1 21 0 0.6-0.6 1.2-1.2 1.2 0 0.1-0.1 0.1 0 0z" fill="#E0E0E0" p-id="30285"></path><path d="M637.2 369.4s-25.3 25.3-39.1 29.3-50.6 21.8-56.3 46c-3.2 13.7-3.2 28 0 41.7 0 0 54.1-0.6 110.8-4.7 24.2-0.9 48.3-3.6 72.1-8.2 0 0 2.9 4.9-3-19.5-6.5-26.7-32.4-44.2-44.8-51.1-15.5-8.8-45.5-19.8-39.7-33.5z" fill="#FFFFFF" p-id="30286"></path><path d="M613.8 435.8c-0.4 0-0.7-0.2-0.9-0.5-0.3-0.5-0.3-1.1 0.2-1.5 3-7.5 4.5-15.5 4.4-23.6 1.3-10.3 4.7-20.2 10.1-29.1-7.5 7.1-14 15.2-19.2 24.1-0.1 0.6-0.7 1-1.3 0.9-0.6-0.1-1-0.7-0.9-1.3 6.8-11.3 15.2-21.6 24.8-30.6 0.9-1 1.7-1.8 2.2-2.3l1-1 1.7 1.5c-8.2 11.3-13.7 24.3-16.1 38 0.4 8.7-1.5 17.4-5.3 25.2-0.2 0-0.4 0.1-0.7 0.2z" fill="#E8E8E8" p-id="30287"></path><path d="M666.5 425.6c-0.6 0-1.1-0.5-1.1-1.1-0.7-9.6-15-19.3-15.2-19.4l-0.1-0.1c-7.8-6.9-13.1-16.1-15.2-26.3-3.5 12.1-2.7 25 2.1 36.6 0.3 0.6 0.1 1.2-0.4 1.6-0.6 0.3-1.2 0.1-1.6-0.4-9.1-16.2-1.9-40.8-0.6-44.7 0.1-0.4 0.2-0.9 0.6-1.1l2.7-1.7-1 3.1c0 0.1 0 0.2-0.1 0.3 0.5 12 5.9 23.2 15 31 1.3 0.9 15.3 10.6 16.1 21 0 0.7-0.5 1.3-1.2 1.3v-0.1z" fill="#E8E8E8" p-id="30288"></path><path d="M499.5 501c-7 0-14.2 0-21.5-0.1-2.9 0-5.6-1.4-7.3-3.6-1.8-2.3-2.4-5.2-1.7-8 2.3-11.9 1.5-24.1-2.2-35.6-1.6-5.6-4.1-10.9-7.3-15.8-2.9-4.3-1.7-10.2 2.6-13 0.2-0.1 0.4-0.3 0.6-0.4 4.7-2.7 10.5-5.4 16.2-8 5.1-2.4 12.1-5.7 13.9-7 12.4-10.6 23.5-22.7 33-35.9 2.8-3.9 8-5.1 12.2-2.8 4.2 2.3 6 7.4 4.1 11.8-0.2 0.6 0.1 4.7 5.4 11.4 4.7 6.1 10.6 11.1 17.4 14.7 4.7 2.3 6.6 7.9 4.3 12.6-0.7 1.3-1.6 2.5-2.9 3.4-9 6.3-15.7 15.3-19.2 25.7-2.3 10.1-2.7 20.6-1.3 30.9 13.2-0.2 41.6-0.9 73.9-2.7 5.2-0.3 9.6 3.7 9.9 8.9 0.1 1.2-0.1 2.4-0.5 3.5-1 3.2-3.5 5.6-6.7 6.6-1.1 0.3-2.3 0.5-3.5 0.4-4.5 0.3-22.4 1.2-73.1 2.5-14.5 0.3-29.9 0.5-46.3 0.5z m-10.6-18.8c13.2 0.1 25.9 0 37.9-0.2-1.5-12-0.8-24.1 1.9-35.9 3-10.6 8.6-20.2 16.4-27.9-6.4-5.1-11.9-11.3-16.3-18.2-7.3 8.8-15.5 16.9-24.4 24.2-5.5 3.7-11.4 6.8-17.5 9.3-2.2 1-4.4 2.1-6.5 3.1 1.9 3.9 3.4 7.9 4.6 12 3.1 10.9 4.4 22.2 3.9 33.6z" fill="#300C13" p-id="30289"></path><path d="M478.2 500.9c-6.7 0-12.9-0.1-18.2-0.2-1.5 0-3.3 0-5.2-0.1-9.5-0.1-23.3-0.4-44.7-0.8-59.6-1.1-119.1-8.3-119.8-8.4-3.8-0.4-6.9-3.1-7.9-6.8-3.3-14.8-3.1-30.2 0.7-44.9 6.3-26.8 38.9-41.6 56.3-49.5 1.6-0.7 3-1.3 4.2-1.9 16.1-9.3 30.6-21.1 43-34.9 2.7-3 7-4 10.7-2.4 3.7 1.6 6 5.4 5.6 9.4 0 4.9 14.4 20.9 31.7 30.5 16.2 9 30.1 21.6 40.5 36.9 4.3 6.5 7.6 13.5 9.7 21 4.5 14.5 5.4 30 2.4 44.9-1 4.2-4.7 7.2-9 7.2z m-178.9-27.4c17.2 1.9 64.1 6.6 111 7.5 21.5 0.5 35.3 0.8 44.7 0.8h0.4c1.6 0.1 3.1 0.1 4.6 0.1 3 0.1 6.3 0.1 9.9 0.1 0.6-9.6-0.5-19.1-3.2-28.3-1.6-5.6-4.1-10.9-7.3-15.8 0-0.1 0-0.1-0.1-0.1-8.8-12.7-20.4-23.2-33.9-30.7-13.7-7.8-25.8-18.2-35.4-30.7-11.3 11.4-24.3 21.1-38.5 28.6-1.3 0.6-2.8 1.3-4.5 2-13.5 6.1-41.6 18.9-45.8 36.8-2.3 9.7-2.9 19.7-1.9 29.7z" fill="#300C13" p-id="30290"></path><path d="M478.1 501.1c-0.1 0-3.1 0-18.3-0.4-5.2-0.1-9.3-4.4-9.3-9.6 0.1-5.2 4.4-9.3 9.6-9.3 5.2 0.1 11.3 0.2 18 0.2 3.8 0 7.2 2.3 8.7 5.8 2 4.9-0.4 10.6-5.4 12.5-1.1 0.6-2.2 0.8-3.3 0.8z m59.9-0.9c-4.2 0-7.9-2.8-9-6.8-3.8-15.5-3.8-31.7-0.2-47.3 3.5-15.1 21.1-33 31.4-40.8 8.7-6.8 18.5-12.2 28.8-16.1 1.5-0.6 2.8-1.1 4.1-1.7 14.4-5.7 26.9-15.4 36.1-27.9 2.6-4.4 8.3-5.9 12.8-3.3 2.1 1.2 3.6 3.2 4.2 5.5 2.7 8.9 24.8 20.9 36.7 27.3 2.3 1.3 4.5 2.4 6.5 3.6 21.2 14.9 36 37.3 41.3 62.7 1.9 7.9 3.2 13.6 3.7 17.3 0.4 3 1.6 10.9-5.6 13.9-1.5 0.6-3 0.8-4.6 0.7-24 4.1-48.2 6.8-72.5 8.1-10.4 0.7-20.8 1.4-31 2-44.9 2.4-82.3 2.8-82.7 2.8z m98.4-119.7c-10.2 10.4-22.4 18.7-35.7 24.4-1.5 0.7-3.1 1.3-4.7 1.9-8.8 3.3-17.1 7.9-24.4 13.7-10.6 7.7-19 18.1-24.4 30-2.3 10.1-2.7 20.6-1.3 30.9 13.2-0.2 41.6-0.9 73.9-2.7 10.1-0.6 20.5-1.2 30.7-2 35.9-2.6 55.1-5.2 64.4-6.7-0.5-2.5-1.3-5.7-2.3-10a86.38 86.38 0 0 0-32.1-50.7c-2-1.1-4.1-2.3-6.4-3.5-13.8-6.6-26.5-15.2-37.7-25.3z" fill="#300C13" p-id="30291"></path><path d="M463.4 360.1c-5.2 0-9.4-4.2-9.4-9.3 0-1.8 0.5-3.7 1.6-5.2 4.3-6.6 16.6-36.8 5-53.4-17.7-25.2-9.5-70.9-9.1-72.8 1-5.1 5.9-8.5 11-7.5s8.5 5.9 7.5 11c-2 11-4.9 43 6 58.6 18.8 26.7 0.8 66.1-4.7 74.4-1.7 2.6-4.7 4.2-7.9 4.2z m110.8 4.9c-5.2 0-9.4-4.2-9.4-9.3 0-1.8 0.5-3.7 1.6-5.2 4.3-6.6 16.6-36.8 5-53.4-17.7-25.2-9.5-70.9-9.1-72.8 1-5.1 5.9-8.5 11-7.5s8.5 5.9 7.5 11c-2 11-4.9 43 6 58.6 18.8 26.7 0.8 66.1-4.7 74.4-1.8 2.6-4.7 4.2-7.9 4.2z m-54.1-57.8c-1.8 0-3.6-0.5-5.1-1.5-4.3-2.9-5.5-8.7-2.7-13 4.3-6.6 16.6-36.8 5-53.4-17.7-25.2-9.5-70.9-9.1-72.8 1-5.1 5.9-8.5 11-7.5s8.5 5.9 7.5 11c-2 11-4.9 43 6 58.6 18.8 26.7 0.8 66.1-4.7 74.4-1.8 2.6-4.8 4.1-7.9 4.2z" fill="#300C13" opacity=".12" p-id="30292"></path><path d="M451.4 360.1c-5.2 0-9.4-4.2-9.4-9.3 0-1.8 0.5-3.7 1.6-5.2 4.3-6.6 16.6-36.8 5-53.4-17.7-25.2-9.5-70.9-9.1-72.8 1-5.1 5.9-8.5 11-7.5s8.5 5.9 7.5 11c-2 11-4.9 43 6 58.6 18.8 26.7 0.8 66.1-4.6 74.4a9.77 9.77 0 0 1-8 4.2z m110.8 4.9c-5.2 0-9.4-4.2-9.4-9.3 0-1.8 0.5-3.7 1.6-5.2 4.3-6.6 16.6-36.8 5-53.4-17.7-25.2-9.5-70.9-9.1-72.8 1-5.1 5.9-8.5 11-7.5s8.5 5.9 7.5 11c-2 11-4.9 43 6 58.6 18.8 26.7 0.8 66.1-4.7 74.4-1.8 2.6-4.7 4.2-7.9 4.2z m-54.1-57.8c-5.2 0-9.4-4.2-9.4-9.3 0-1.8 0.5-3.7 1.6-5.2 4.3-6.6 16.6-36.8 5-53.4-17.7-25.2-9.5-70.9-9.1-72.8 1-5.1 5.9-8.5 11-7.5s8.5 5.9 7.5 11c-2 11-4.9 43 6 58.6 18.8 26.7 0.8 66.1-4.7 74.4-1.8 2.6-4.8 4.1-7.9 4.2z" fill="#300C13" p-id="30293"></path></svg>