<?xml version="1.0" standalone="no"?><!DOCTYPE svg PUBLIC "-//W3C//DTD SVG 1.1//EN" "http://www.w3.org/Graphics/SVG/1.1/DTD/svg11.dtd"><svg t="1634621613683" class="icon" viewBox="0 0 1270 1024" version="1.1" xmlns="http://www.w3.org/2000/svg" p-id="26009" xmlns:xlink="http://www.w3.org/1999/xlink" width="248.046875" height="200"><defs><style type="text/css"></style></defs><path d="M242.80064 0h391.972571a124.708571 124.708571 0 0 1 124.708572 124.708571v837.388191H118.092069V124.708571A124.708571 124.708571 0 0 1 242.80064 0z" fill="#5B8FF9" p-id="26010"></path><path d="M331.913021 213.820952h213.820952c35.59619 0 53.418667 17.798095 53.418667 53.443048 0 35.620571-17.798095 53.443048-53.418667 53.443048h-213.820952c-35.644952 0-53.443048-17.798095-53.443048-53.443048 0-35.620571 17.798095-53.443048 53.443048-53.443048z m0 213.772191h213.820952c35.59619 0 53.418667 17.798095 53.418667 53.418667 0 35.644952-17.798095 53.443048-53.418667 53.443047h-213.820952c-35.644952 0-53.443048-17.798095-53.443048-53.443047 0-35.59619 17.798095-53.418667 53.443048-53.418667z m0 213.820952h213.820952c35.59619 0 53.418667 17.798095 53.418667 53.443048 0 35.59619-17.798095 53.418667-53.418667 53.418667h-213.820952c-35.644952 0-53.443048-17.798095-53.443048-53.418667 0-35.644952 17.798095-53.443048 53.443048-53.443048z" fill="#FFFFFF" p-id="26011"></path><path d="M55.725592 908.604952H1195.973973a53.443048 53.443048 0 1 1 0 106.886096H55.725592a53.443048 53.443048 0 1 1 0-106.886096z" fill="#5B8FF9" p-id="26012"></path><path d="M812.92483 508.513524v454.582857h320.341334V540.135619a31.183238 31.183238 0 0 0-22.698667-29.939809l-218.331428-61.732572a62.366476 62.366476 0 0 0-79.311239 60.050286z" fill="#CDDDFD" p-id="26013"></path></svg>