<?xml version="1.0" standalone="no"?><!DOCTYPE svg PUBLIC "-//W3C//DTD SVG 1.1//EN" "http://www.w3.org/Graphics/SVG/1.1/DTD/svg11.dtd"><svg t="1634622852013" class="icon" viewBox="0 0 1024 1024" version="1.1" xmlns="http://www.w3.org/2000/svg" p-id="32667" xmlns:xlink="http://www.w3.org/1999/xlink" width="200" height="200"><defs><style type="text/css"></style></defs><path d="M806.4 532.992a71.424 71.424 0 0 1-69.376 73.216H286.976a71.424 71.424 0 0 1-69.376-73.216V90.368A71.424 71.424 0 0 1 286.976 17.408h450.048a71.168 71.168 0 0 1 69.376 72.96z" fill="#FFFFFF" p-id="32668"></path><path d="M737.024 619.008H286.976A84.224 84.224 0 0 1 204.8 532.992V90.368A83.968 83.968 0 0 1 286.976 4.608h450.048A83.968 83.968 0 0 1 819.2 90.368v442.624a84.224 84.224 0 0 1-82.176 86.016z m-450.048-588.8A58.368 58.368 0 0 0 230.4 90.368v442.624a58.624 58.624 0 0 0 56.576 60.416h450.048A58.624 58.624 0 0 0 793.6 532.992V90.368a58.368 58.368 0 0 0-56.576-60.16z" fill="#FB1F1F" p-id="32669"></path><path d="M537.6 959.744s32.256 46.848-25.6 46.848-25.6-46.848-25.6-46.848V606.208h51.2z" fill="#FFFFFF" p-id="32670"></path><path d="M512 1019.392a45.824 45.824 0 0 1-43.776-18.944 48.896 48.896 0 0 1 4.608-44.288V593.408h78.336v362.752a46.848 46.848 0 0 1 5.376 43.776 45.568 45.568 0 0 1-44.544 19.456z m-13.568-400.384v344.576l-2.048 3.072c-3.84 5.888-7.936 16.896-5.632 21.504s7.936 5.632 21.248 5.632 20.224-2.816 21.76-5.632-2.048-15.36-5.888-21.248l-2.304-3.328V619.008zM302.0288 373.0944l0.2816-86.784 433.664 1.3568-0.256 86.784z" fill="#FB1F1F" p-id="32671"></path><path d="M480.768 125.696h76.8v409.6h-76.8z" fill="#FB1F1F" p-id="32672"></path></svg>